<svg version="1.1" xmlns="http://www.w3.org/2000/svg" xmlns:xlink="http://www.w3.org/1999/xlink" width="504" height="339.62654" viewBox="0,0,504,339.62654"><g transform="translate(5.5,-32.52132)"><g data-paper-data="{&quot;isPaintingLayer&quot;:true}" fill-rule="nonzero" stroke-linejoin="miter" stroke-miterlimit="10" stroke-dasharray="" stroke-dashoffset="0" style="mix-blend-mode: normal"><g stroke-width="2"><g stroke="#665122"><path d="M-1.5,365.71931v-32.57143c0,0 163.25017,0 245,0c81.9165,0 246,0 246,0v32.57143z" fill="#a78637" stroke-linecap="butt"/><path d="M-3.5,343.46219h494" fill="none" stroke-linecap="round"/><path d="M497.5,353.77641h-497" fill="none" stroke-linecap="round"/><path d="M43.5,333.69072v8.14286" fill="none" stroke-linecap="round"/><path d="M108.5,342.37642v-7.6" fill="none" stroke-linecap="round"/><path d="M176.5,342.91932v-8.14286" fill="none" stroke-linecap="round"/><path d="M247.5,341.83354v-8.14286" fill="none" stroke-linecap="round"/><path d="M315.5,342.91925v-8.14286" fill="none" stroke-linecap="round"/><path d="M380.5,333.69066v8.68572" fill="none" stroke-linecap="round"/><path d="M432.5,342.37641v-9.22857" fill="none" stroke-linecap="round"/><path d="M402.5,343.46219v9.22857" fill="none" stroke-linecap="round"/><path d="M345.5,344.00503v8.14285" fill="none" stroke-linecap="round"/><path d="M275.5,352.69072v-8.14285" fill="none" stroke-linecap="round"/><path d="M203.5,352.69074v-8.68571" fill="none" stroke-linecap="round"/><path d="M141.5,343.46219v9.77143" fill="none" stroke-linecap="round"/><path d="M70.5,342.37646v11.94286" fill="none" stroke-linecap="round"/><path d="M34.5,354.86216v10.85715" fill="none" stroke-linecap="round"/><path d="M100.5,367.89068v-11.94286" fill="none" stroke-linecap="round"/><path d="M175.5,354.86215v10.31428" fill="none" stroke-linecap="round"/><path d="M245.5,355.405v9.77142" fill="none" stroke-linecap="round"/><path d="M315.5,371.14787v-15.2" fill="none" stroke-linecap="round"/><path d="M379.5,365.17644v-8.14285v-3.25714" fill="none" stroke-linecap="round"/><path d="M436.5,368.43356v-12.48572" fill="none" stroke-linecap="round"/></g><g stroke="none" stroke-linecap="butt"><path d="M-4.5,339.27275v-8.25h496v8.25z" fill="#d3a846"/><path d="M-5.5,334.77275v-3.75h498v3.75z" fill="#dbaf48"/></g></g><g stroke="none" stroke-width="3.5" stroke-linecap="butt"><g><path d="M203.63086,294.00798v-8.48664h64.9046v8.48664z" fill="#d3a846"/><path d="M203.5,289.37888v-3.85756h65.16631v3.85756z" fill="#dbaf48"/></g><g><path d="M203.9684,302.07408v-8.48664h64.9046v8.48664z" fill="#775f27"/><path d="M203.83755,297.44503v-3.85756h65.16631v3.85756z" fill="#8b6f2e"/></g></g><g stroke-width="1.5"><g stroke="none" stroke-linecap="butt"><path d="M176.27098,182.7197v-5.13135h134.40119v5.13135z" fill="#d3a846"/><path d="M176,179.92072v-2.33243h134.94314v2.33243z" fill="#dbaf48"/></g><g stroke="#665122"><path d="M177.43336,194.66033v-12.03948c0,0 44.23592,0 66.38769,0c22.19693,0 66.65867,0 66.65867,0v12.03948z" fill="#a78637" stroke-linecap="butt"/><path d="M176.89142,186.43334h133.85926" fill="none" stroke-linecap="round"/><path d="M177.97531,190.24585h134.67217" fill="none" stroke-linecap="round"/><path d="M190.19732,186.31716l-0.57029,-3.49565" fill="none" stroke-linecap="round"/><path d="M207.24009,186.03206v-2.80922" fill="none" stroke-linecap="round"/><path d="M225.66606,183.22283v3.00987" fill="none" stroke-linecap="round"/><path d="M244.90493,182.8215v3.00987" fill="none" stroke-linecap="round"/><path d="M263.33091,183.22283v3.00987" fill="none" stroke-linecap="round"/><path d="M280.94396,186.03206v-3.21053" fill="none" stroke-linecap="round"/><path d="M295.03443,186.03203v-3.41119" fill="none" stroke-linecap="round"/><path d="M286.90531,190.20888v-3.41119" fill="none" stroke-linecap="round"/><path d="M271.46002,186.63402l-0.57029,3.52237" fill="none" stroke-linecap="round"/><path d="M253.06238,190.28384l-0.57029,-3.44916" fill="none" stroke-linecap="round"/><path d="M232.98225,190.24724v-3.61321" fill="none" stroke-linecap="round"/><path d="M216.18209,190.04519v-3.61184" fill="none" stroke-linecap="round"/><path d="M196.94321,186.6393v3.56436" fill="none" stroke-linecap="round"/><path d="M187.18829,190.17127v4.48906" fill="none" stroke-linecap="round"/><path d="M205.07231,190.31982v4.41448" fill="none" stroke-linecap="round"/><path d="M225.39508,190.28109v4.17858" fill="none" stroke-linecap="round"/><path d="M244.36299,194.4597l-0.57029,-4.23417" fill="none" stroke-linecap="round"/><path d="M262.76062,190.44127l0.57029,4.03964" fill="none" stroke-linecap="round"/><path d="M280.67301,194.45967v-3.00987v-1.20395" fill="none" stroke-linecap="round"/><path d="M296.11829,190.07693v4.61514" fill="none" stroke-linecap="round"/></g></g><g stroke-width="1.5"><g stroke="none" stroke-linecap="butt"><path d="M1.97531,119.7197v-5.13135h134.4012v5.13135z" fill="#d3a846"/><path d="M1.70433,116.92072v-2.33244h134.94315v2.33244z" fill="#dbaf48"/></g><g stroke="#665122"><path d="M2.16777,131.66033v-12.03948c0,0 44.46174,0 66.65867,0c22.15176,0 66.38769,0 66.38769,0v12.03948z" fill="#a78637" stroke-linecap="butt"/><path d="M1.89679,123.43334h133.85926" fill="none" stroke-linecap="round"/><path d="M134.67217,127.24586h-134.67216" fill="none" stroke-linecap="round"/><path d="M122.45017,123.31716l0.57029,-3.49565" fill="none" stroke-linecap="round"/><path d="M105.4074,120.22285v2.80922" fill="none" stroke-linecap="round"/><path d="M86.98143,120.22283v3.00987" fill="none" stroke-linecap="round"/><path d="M67.74255,119.82149v3.00987" fill="none" stroke-linecap="round"/><path d="M49.31658,120.22283v3.00988" fill="none" stroke-linecap="round"/><path d="M31.70352,119.82152v3.21054" fill="none" stroke-linecap="round"/><path d="M17.61306,123.03204v-3.41119" fill="none" stroke-linecap="round"/><path d="M25.74217,123.79769v3.41119" fill="none" stroke-linecap="round"/><path d="M41.75776,127.15639l-0.57029,-3.52237" fill="none" stroke-linecap="round"/><path d="M59.5851,127.28382l0.57029,-3.44915" fill="none" stroke-linecap="round"/><path d="M79.66523,123.634v3.6132" fill="none" stroke-linecap="round"/><path d="M96.46539,123.43334v3.61184" fill="none" stroke-linecap="round"/><path d="M115.70427,127.20367v-3.56436" fill="none" stroke-linecap="round"/><path d="M125.45919,131.66033v-4.48906" fill="none" stroke-linecap="round"/><path d="M107.57517,127.31982v4.41448" fill="none" stroke-linecap="round"/><path d="M87.2524,131.4597v-4.17857" fill="none" stroke-linecap="round"/><path d="M68.85477,127.22552l-0.57029,4.23416" fill="none" stroke-linecap="round"/><path d="M49.31658,131.48091l0.57029,-4.03964" fill="none" stroke-linecap="round"/><path d="M31.97448,131.45968v-3.00987v-1.20395" fill="none" stroke-linecap="round"/><path d="M16.52918,127.07697v4.61514" fill="none" stroke-linecap="round"/></g></g><g stroke="none" stroke-width="3.5" stroke-linecap="butt"><g><path d="M372.63086,249.00798v-8.48664h64.9046v8.48664z" fill="#d3a846"/><path d="M372.5,244.37888v-3.85756h65.16632v3.85756z" fill="#dbaf48"/></g><g><path d="M372.96841,257.07408v-8.48664h64.90459v8.48664z" fill="#775f27"/><path d="M372.83755,252.44503v-3.85756h65.16632v3.85756z" fill="#8b6f2e"/></g></g><g stroke="none" stroke-width="3.5" stroke-linecap="butt"><g><path d="M58.63086,251.00798v-8.48664h64.9046v8.48664z" fill="#d3a846"/><path d="M58.5,246.37889v-3.85756h65.16632v3.85756z" fill="#dbaf48"/></g><g><path d="M58.96841,259.07408v-8.48664h64.90459v8.48664z" fill="#775f27"/><path d="M58.83755,254.44503v-3.85756h65.16632v3.85756z" fill="#8b6f2e"/></g></g><g stroke-width="1.5"><g stroke="none" stroke-linecap="butt"><path d="M346.97531,117.71971v-5.13135h134.4012v5.13135z" fill="#d3a846"/><path d="M346.70433,114.92073v-2.33244h134.94315v2.33244z" fill="#dbaf48"/></g><g stroke="#665122"><path d="M347.16777,129.66034v-12.03948c0,0 44.46174,0 66.65867,0c22.15176,0 66.38769,0 66.38769,0v12.03948z" fill="#a78637" stroke-linecap="butt"/><path d="M346.89679,121.43335h133.85926" fill="none" stroke-linecap="round"/><path d="M479.67217,125.24586h-134.67216" fill="none" stroke-linecap="round"/><path d="M467.45017,121.31716l0.57029,-3.49565" fill="none" stroke-linecap="round"/><path d="M450.4074,118.22285v2.80922" fill="none" stroke-linecap="round"/><path d="M431.98143,118.22284v3.00987" fill="none" stroke-linecap="round"/><path d="M412.74255,117.8215v3.00987" fill="none" stroke-linecap="round"/><path d="M394.31658,118.22284v3.00988" fill="none" stroke-linecap="round"/><path d="M376.70352,117.82152v3.21054" fill="none" stroke-linecap="round"/><path d="M362.61306,121.03204v-3.41119" fill="none" stroke-linecap="round"/><path d="M370.74217,121.7977v3.41119" fill="none" stroke-linecap="round"/><path d="M386.75776,125.1564l-0.57029,-3.52237" fill="none" stroke-linecap="round"/><path d="M404.5851,125.28382l0.57029,-3.44915" fill="none" stroke-linecap="round"/><path d="M424.66523,121.63401v3.6132" fill="none" stroke-linecap="round"/><path d="M441.46539,121.43335v3.61184" fill="none" stroke-linecap="round"/><path d="M460.70427,125.20367v-3.56436" fill="none" stroke-linecap="round"/><path d="M470.45919,129.66034v-4.48906" fill="none" stroke-linecap="round"/><path d="M452.57517,125.31982v4.41448" fill="none" stroke-linecap="round"/><path d="M432.2524,129.4597v-4.17857" fill="none" stroke-linecap="round"/><path d="M413.85477,125.22552l-0.57029,4.23416" fill="none" stroke-linecap="round"/><path d="M394.31658,129.48091l0.57029,-4.03964" fill="none" stroke-linecap="round"/><path d="M376.97448,129.45968v-3.00987v-1.20395" fill="none" stroke-linecap="round"/><path d="M361.52918,125.07697v4.61514" fill="none" stroke-linecap="round"/></g></g><g stroke="none" stroke-width="3.5" stroke-linecap="butt"><g><path d="M206.63086,79.00798v-8.48664h64.9046v8.48664z" fill="#d3a846"/><path d="M206.5,74.37889v-3.85756h65.16632v3.85756z" fill="#dbaf48"/></g><g><path d="M206.96841,87.07408v-8.48664h64.90459v8.48664z" fill="#775f27"/><path d="M206.83755,82.44503v-3.85756h65.16632v3.85756z" fill="#8b6f2e"/></g></g><g stroke="none" stroke-width="3.5" stroke-linecap="butt"><g><path d="M62.63086,46.00799v-8.48664h64.9046v8.48664z" fill="#d3a846"/><path d="M62.5,41.37889v-3.85756h65.16632v3.85756z" fill="#dbaf48"/></g><g><path d="M62.96841,54.07409v-8.48664h64.90459v8.48664z" fill="#775f27"/><path d="M62.83755,49.44504v-3.85756h65.16632v3.85756z" fill="#8b6f2e"/></g></g><g stroke="none" stroke-width="3.5" stroke-linecap="butt"><g><path d="M368.63086,41.00798v-8.48664h64.9046v8.48664z" fill="#d3a846"/><path d="M368.5,36.37888v-3.85756h65.16632v3.85756z" fill="#dbaf48"/></g><g><path d="M368.96841,49.07409v-8.48664h64.90459v8.48664z" fill="#775f27"/><path d="M368.83755,44.44503v-3.85756h65.16632v3.85756z" fill="#8b6f2e"/></g></g></g></g></svg>