<svg version="1.1" xmlns="http://www.w3.org/2000/svg" xmlns:xlink="http://www.w3.org/1999/xlink" width="48.97571" height="55.14009" viewBox="0,0,48.97571,55.14009"><defs><radialGradient cx="270.88872" cy="168.5878" r="9" gradientUnits="userSpaceOnUse" id="color-1"><stop offset="0" stop-color="#ff6666"/><stop offset="1" stop-color="#ff6666" stop-opacity="0"/></radialGradient><radialGradient cx="258.66101" cy="175.2819" r="0.63494" gradientUnits="userSpaceOnUse" id="color-2"><stop offset="0" stop-color="#716f77"/><stop offset="1" stop-color="#716f77" stop-opacity="0"/></radialGradient><radialGradient cx="253.32207" cy="179.93473" r="0.48842" gradientUnits="userSpaceOnUse" id="color-3"><stop offset="0" stop-color="#716f77"/><stop offset="1" stop-color="#716f77" stop-opacity="0"/></radialGradient><radialGradient cx="253.16051" cy="175.86695" r="0.47621" gradientUnits="userSpaceOnUse" id="color-4"><stop offset="0" stop-color="#716f77"/><stop offset="1" stop-color="#716f77" stop-opacity="0"/></radialGradient><radialGradient cx="247.45666" cy="173.64387" r="0.54397" gradientUnits="userSpaceOnUse" id="color-5"><stop offset="0" stop-color="#716f77"/><stop offset="1" stop-color="#716f77" stop-opacity="0"/></radialGradient><linearGradient x1="258.1737" y1="170.26143" x2="258.38991" y2="171.2694" gradientUnits="userSpaceOnUse" id="color-6"><stop offset="0" stop-color="#ffffff" stop-opacity="0"/><stop offset="1" stop-color="#ffffff"/></linearGradient><linearGradient x1="258.63487" y1="172.22436" x2="258.41866" y2="171.21637" gradientUnits="userSpaceOnUse" id="color-7"><stop offset="0" stop-color="#ffffff" stop-opacity="0"/><stop offset="1" stop-color="#ffffff"/></linearGradient></defs><g transform="translate(-230.41301,-152.44775)"><g data-paper-data="{&quot;isPaintingLayer&quot;:true}" fill-rule="nonzero" stroke-linejoin="miter" stroke-miterlimit="10" stroke-dasharray="" stroke-dashoffset="0" style="mix-blend-mode: normal"><path d="M261.38872,169.3378c0,-4.97056 4.02944,-9 9,-9c4.97056,0 9,4.02944 9,9c0,4.97056 -4.02944,9 -9,9c-4.97056,0 -9,-4.02944 -9,-9z" fill="url(#color-1)" stroke="none" stroke-width="NaN" stroke-linecap="butt"/><path d="M237.74127,200.77051l-2.45822,-33.59169l12.99501,-0.39692l2.45099,33.42518c0,0 0.38798,2.65401 -1.19426,4.52351c-1.12188,1.32558 -3.90744,2.03709 -5.52467,2.10725c-1.14222,0.04955 -3.64617,0.02201 -4.69364,-1.11391c-0.13515,-0.14656 -0.08668,0.02904 -0.21599,-0.12317c-1.43029,-1.68349 -1.35922,-4.83025 -1.35922,-4.83025z" data-paper-data="{&quot;origRot&quot;:0}" fill="#8f4500" stroke="#000000" stroke-width="1.5" stroke-linecap="butt"/><g data-paper-data="{&quot;origRot&quot;:0}" stroke="#000000" stroke-width="1.5"><path d="M231.1853,164.52586c-0.37741,-5.87893 4.08246,-10.95071 9.9614,-11.32811c5.87893,-0.37741 10.9507,4.08247 11.3281,9.9614c0.37741,5.87893 -4.08246,10.95071 -9.96139,11.32811c-5.87893,0.37741 -10.95071,-4.08246 -11.32811,-9.9614z" fill="#ff0000" stroke-linecap="butt"/><path d="M241.46264,159.01438c0,0 1.16086,1.97015 1.22853,3.02428c0.06156,0.95897 -0.83909,3.04209 -0.83909,3.04209" fill="none" stroke-linecap="round"/><path d="M247.30009,158.63964c0,0 1.16086,1.97014 1.22853,3.02428c0.06156,0.95897 -0.83909,3.0421 -0.83909,3.0421" fill="none" stroke-linecap="round"/></g><g data-paper-data="{&quot;origRot&quot;:0}"><g data-paper-data="{&quot;index&quot;:null}"><g fill="#d2d1d9" stroke="#000000" stroke-width="0.25" stroke-linecap="butt"><path d="M255.26998,170.42939l-0.08285,-0.38626l1.62941,-0.34951l0.08285,0.38626z"/><path d="M257.29044,169.996l-0.08285,-0.38626l1.62941,-0.34951l0.08285,0.38626z"/><path d="M259.28246,169.58892l-0.08285,-0.38626l1.62941,-0.34951l0.08285,0.38626z"/></g><g fill="#d2d1d9" stroke="#000000" stroke-width="0.25" stroke-linecap="butt"><path d="M261.30707,169.17484l-0.08285,-0.38626l1.62941,-0.34951l0.08285,0.38626z"/><path d="M263.32753,168.74145l-0.08285,-0.38626l1.62941,-0.34951l0.08285,0.38626z"/><path d="M265.31956,168.33436l-0.08285,-0.38626l1.62941,-0.34951l0.08285,0.38626z"/></g><path d="M267.34002,167.90097l-0.08285,-0.38626l1.62941,-0.34951l0.08285,0.38626z" fill="#d2d1d9" stroke="#000000" stroke-width="0.25" stroke-linecap="butt"/><path d="M254.46995,179.56129c0,0 -0.73489,-0.07287 -1.22528,-0.43459c-0.25514,-0.18819 -0.39785,-0.63394 -0.43487,-0.80651c-0.0462,-0.21539 0.0081,-0.83474 0.22035,-1.17276c0.29377,-0.46785 0.78473,-0.64003 0.78473,-0.64003l-0.0218,0.03371c0,0 -0.27029,1.1271 -0.15122,1.6588c0.10976,0.49016 0.83999,1.41691 0.83999,1.41691z" fill="#242527" stroke="none" stroke-width="0.25" stroke-linecap="butt"/><path d="M255.38818,188.22522c0,0 -0.66176,0.32825 -1.39496,0.52046c-1.00688,0.26395 -4.86946,1.04105 -4.86946,1.04105l0.66769,-0.64416l5.60114,-1.20144l-0.00441,0.28408z" fill="#2c2e30" stroke="none" stroke-width="0.25" stroke-linecap="butt"/><path d="M255.87145,179.04374c0,0 -1.37068,-0.73063 -1.79983,-1.17198c-0.43424,-0.44657 -0.37378,-1.54893 -0.37378,-1.54893l1.3451,-0.47234c0,0 -0.31367,1.15572 -0.14846,1.62619c0.20034,0.57053 1.06573,1.64099 1.06573,1.64099z" data-paper-data="{&quot;origRot&quot;:0}" fill="#575a5e" stroke="none" stroke-width="0.25" stroke-linecap="butt"/><path d="M242.7689,178.83012l-0.40408,-0.32262l1.8686,-1.34963l29.00885,-6.22238l-0.48898,0.75604l-1.10273,0.23653l0.06867,0.32015l-11.80985,2.5332l0.08393,0.39129c0,0 -0.32599,0.50403 -0.48898,0.75604c-0.16299,0.25201 -0.48898,0.75604 -0.48898,0.75604l0.87923,2.45321c0,0 -3.62053,0.57742 -4.59415,0.89594c-0.60015,0.19634 -1.13488,0.92827 -1.13488,0.92827c0,0 0.0146,4.18946 0.16934,5.47058c0.0672,0.55631 0.75444,1.43809 0.75444,1.43809l-1.15603,0.50843l-5.22906,1.12163c0,0 0.15595,-0.36836 0.08449,-0.39466c-0.00018,-0.00006 -0.15532,0.14474 -0.15549,0.14468c-0.10413,-0.03673 -0.47013,0.19801 -0.80507,0.12633c-0.45678,-0.09776 -0.8951,-0.50107 -0.8951,-0.50107c0,0 -0.38109,-0.90348 -0.3205,-3.65857c0.01615,-0.73436 0.48467,-2.28696 0.6462,-3.54923c0.11984,-0.93648 -0.04123,-1.68915 -0.09194,-1.95572c-0.2285,-1.20123 -2.29153,-1.29718 -2.29153,-1.29718zM258.32055,176.81147c0.00072,-0.02642 -0.0019,-0.05531 -0.00868,-0.08689c-0.06253,-0.29151 -0.26484,-0.42235 -0.26484,-0.42235c-0.21531,0.04618 -0.31334,-0.46985 -0.53256,-0.45205c-0.30431,0.02471 -0.8531,0.11306 -1.14809,0.10421c-0.48348,-0.0145 -1.72853,0.14799 -2.16544,0.36472c-0.04081,0.02024 -0.65176,0.42461 -0.69059,0.44525c-0.77639,0.41371 -0.66799,2.21132 0.35224,2.73902c0.45096,0.23325 1.45439,-0.00194 1.90942,-0.09954c0.86023,-0.18452 2.7078,-0.21809 2.80841,-1.39158c0.01816,-0.21183 -0.03607,-0.40689 -0.07952,-0.60947c-0.01042,-0.04858 -0.08337,-0.38868 -0.09379,-0.43726c-0.01314,-0.06125 -0.04422,-0.11404 -0.08656,-0.15404z" fill="#444649" stroke="#000000" stroke-width="0.25" stroke-linecap="round"/><path d="M257.14695,172.83137l-1.37967,0.33315l-0.13981,-0.30489l-0.1957,-0.21849l-0.3482,-0.40902l-0.27705,-0.42428l-0.11445,-0.53358l-0.23643,-0.58183l3.73504,-0.80116l14.72675,-3.15888l0.37915,2.63489l-1.11036,0.20096z" fill="#ff0000" stroke="#000000" stroke-width="0.25" stroke-linecap="round"/><path d="M245.1562,176.67372l0.51005,-3.34655l0.6706,-1.03684l1.54737,-0.33191l1.28058,-0.27468l0.36963,-0.35835c0,0 3.54954,-0.76137 4.28577,-0.9193c0.25557,-0.05482 0.51642,-0.11077 0.51642,-0.11077c0,0 0.08863,0.80922 0.40597,1.34373c0.2933,0.49401 0.45547,0.25999 0.56121,0.4941c0.09997,0.22133 -0.01906,0.27223 -0.01906,0.27223l17.97255,-3.8551l-0.08905,2.06297z" data-paper-data="{&quot;origRot&quot;:0}" fill="#ff0000" stroke="#000000" stroke-width="0.25" stroke-linecap="round"/><path d="M244.80974,176.96413c0,0 -0.03031,-0.97506 -0.21341,-1.50601c-0.01128,-0.03268 0.05323,-0.03852 0.02079,-0.0882c-0.13776,-0.21106 -0.69225,-0.76544 -0.84856,-1.17516c-0.07249,-0.19001 -0.0102,-0.5064 -0.04524,-0.57791c-0.07091,-0.14475 0.30535,-0.23794 0.59073,-0.09555c0.18865,0.09413 0.52744,0.25824 0.52744,0.25824c0,0 0.38289,-0.0779 0.51967,-0.07575c0.12162,0.00189 0.27216,0.40587 0.27216,0.40587l-0.737,2.85142z" data-paper-data="{&quot;origRot&quot;:0}" fill="#5e5e60" stroke="none" stroke-width="0.25" stroke-linecap="butt"/><path d="M246.34564,172.2827l-0.26202,-1.22156l0.93202,-0.258c0,0 0.663,0.31673 0.93395,0.48392c0.26441,0.16314 0.67259,0.50733 0.67259,0.50733z" fill="#5e5e60" stroke="none" stroke-width="0.25" stroke-linecap="butt"/><path d="M246.09955,171.40621l-0.07146,-0.33315l1.11051,-0.2382l0.07146,0.33315z" fill="#4e4e50" stroke="none" stroke-width="0.25" stroke-linecap="butt"/><g fill="#444649" stroke="#000000" stroke-width="0.25" stroke-linecap="butt"><g><path d="M270.93518,172.92787l-0.10719,-0.49973l0.93756,-0.20111l0.10719,0.49973z"/><path d="M269.76323,173.17926l-0.10719,-0.49973l0.93756,-0.20111l0.10719,0.49973z"/></g><g><path d="M268.59127,173.43064l-0.10719,-0.49973l0.93756,-0.20111l0.10719,0.49973z"/><path d="M267.41932,173.68202l-0.10719,-0.49973l0.93756,-0.20111l0.10719,0.49973z"/></g></g><g fill="#444649" stroke="#000000" stroke-width="0.25" stroke-linecap="butt"><g><path d="M266.25629,173.97506l-0.10719,-0.49973l0.93756,-0.20111l0.10719,0.49973z"/><path d="M265.08434,174.22645l-0.10719,-0.49973l0.93756,-0.20111l0.10719,0.49973z"/></g><g><path d="M263.91237,174.47783l-0.10719,-0.49973l0.93756,-0.20111l0.10719,0.49973z"/><path d="M262.74041,174.72922l-0.10719,-0.49973l0.93756,-0.20111l0.10719,0.49973z"/></g></g><g fill="#444649" stroke="#000000" stroke-width="0.25" stroke-linecap="butt"><path d="M261.52716,175.03302l-0.10719,-0.49973l0.93756,-0.20111l0.10719,0.49973z"/><path d="M260.3552,175.2844l-0.10719,-0.49973l0.93756,-0.20111l0.10719,0.49973z"/></g><path d="M246.85557,188.59351c0,0 -0.25048,-2.16471 -0.09639,-3.70435c0.05364,-0.53595 0.43156,-1.89914 0.5723,-2.67489c0.32918,-1.81441 0.38292,-5.64891 0.38292,-5.64891c0,0 0.3492,-0.11803 0.76494,-0.08044c0.14328,0.01296 0.3748,-0.17757 0.4932,-0.03598c0.28049,0.33542 0.17389,1.80704 0.41271,1.75029c0.74415,-0.17682 2.57303,-0.31768 2.57303,-0.31768l1.49066,9.37522z" data-paper-data="{&quot;origRot&quot;:0}" fill="#313235" stroke="none" stroke-width="0.25" stroke-linecap="butt"/><g stroke="none" stroke-width="0.25" stroke-linecap="butt"><path d="M258.86194,176.34439c-0.39865,0.08551 -0.79115,-0.16835 -0.87666,-0.567c-0.08551,-0.39865 0.16835,-0.79115 0.567,-0.87666c0.39866,-0.08551 0.79115,0.16835 0.87666,0.567c0.08551,0.39866 -0.16835,0.79115 -0.567,0.87666z" fill="#353438"/><path d="M258.94229,174.92021c0.34251,0.09625 0.54753,0.43278 0.45793,0.75168c-0.0896,0.31889 -0.43991,0.49939 -0.78242,0.40314c-0.34251,-0.09625 -0.54753,-0.43278 -0.45793,-0.75168c0.0896,-0.31889 0.43991,-0.49939 0.78242,-0.40314z" data-paper-data="{&quot;origRot&quot;:0}" fill="url(#color-2)"/></g><g stroke="none" stroke-width="0.25" stroke-linecap="butt"><path d="M253.47664,180.75203c-0.30665,0.06578 -0.60857,-0.12949 -0.67435,-0.43615c-0.06578,-0.30665 0.12949,-0.60858 0.43615,-0.67436c0.30665,-0.06578 0.60857,0.12949 0.67435,0.43616c0.06578,0.30665 -0.12949,0.60857 -0.43615,0.67435z" fill="#353438"/><path d="M253.53844,179.65651c0.26348,0.07404 0.42119,0.33291 0.35225,0.57821c-0.06893,0.2453 -0.33839,0.38414 -0.60187,0.31011c-0.26348,-0.07404 -0.42119,-0.33291 -0.35225,-0.57821c0.06893,-0.2453 0.33839,-0.38414 0.60187,-0.31011z" data-paper-data="{&quot;origRot&quot;:0}" fill="url(#color-3)"/></g><path d="M249.20024,177.06162l-0.08933,-0.41644l3.44258,-0.73843l0.08933,0.41644z" fill="#313235" stroke="none" stroke-width="0.25" stroke-linecap="butt"/><path d="M249.28339,178.22696l-0.03725,-0.50973l2.94514,-0.21522l0.03725,0.50973z" data-paper-data="{&quot;origRot&quot;:0}" fill="#313235" stroke="none" stroke-width="0.25" stroke-linecap="butt"/><g stroke="none" stroke-width="0.25" stroke-linecap="butt"><path d="M253.31121,176.66383c-0.29899,0.06413 -0.59337,-0.12625 -0.6575,-0.42525c-0.06413,-0.29899 0.12626,-0.59337 0.42525,-0.6575c0.29899,-0.06413 0.59337,0.12625 0.6575,0.42525c0.06413,0.29899 -0.12626,0.59337 -0.42525,0.6575z" fill="#353438"/><path d="M253.37146,175.59569c0.25689,0.07218 0.41066,0.32458 0.34345,0.56376c-0.0672,0.23917 -0.32994,0.37454 -0.58682,0.30236c-0.25689,-0.07219 -0.41066,-0.32458 -0.34345,-0.56376c0.0672,-0.23917 0.32994,-0.37454 0.58682,-0.30236z" data-paper-data="{&quot;origRot&quot;:0}" fill="url(#color-4)"/></g><path d="M249.33318,177.41062l-0.08933,-0.41644l3.44258,-0.73843l0.08933,0.41644z" fill="#212224" stroke="none" stroke-width="0.25" stroke-linecap="butt"/><g fill="#96959a" stroke="#000000" stroke-width="0.25" stroke-linecap="butt"><path d="M252.5529,175.02599l-0.27591,-3.28043l0.26664,-0.05719l0.31471,3.27211z"/><path d="M251.97508,175.14993l-0.27591,-3.28043l0.26664,-0.05719l0.31471,3.27211z"/><path d="M251.39727,175.27387l-0.27591,-3.28043l0.26664,-0.05719l0.31471,3.27211z"/></g><g fill="#96959a" stroke="#000000" stroke-width="0.25" stroke-linecap="butt"><path d="M250.83616,175.39423l-0.27591,-3.28043l0.26664,-0.05719l0.31471,3.27211z"/><path d="M250.25834,175.51817l-0.27591,-3.28043l0.26664,-0.05719l0.31471,3.27211z"/><path d="M249.68052,175.64211l-0.27591,-3.28043l0.26664,-0.05719l0.31471,3.27211z"/></g><g fill="#96959a" stroke="#000000" stroke-width="0.25" stroke-linecap="butt"><path d="M249.09056,175.73962l-0.27591,-3.28043l0.26664,-0.05719l0.31471,3.27211z"/><path d="M248.51275,175.86356l-0.27591,-3.28043l0.26664,-0.05719l0.31471,3.27211z"/><path d="M247.93493,175.98751l-0.27591,-3.28043l0.26664,-0.05719l0.31471,3.27211z"/></g><g fill="#96959a" stroke="#000000" stroke-width="0.25" stroke-linecap="butt"><path d="M247.40764,176.07156l-0.28612,-3.27824l0.25997,-0.05576l0.32396,3.27012z"/><path d="M246.84428,176.1924l-0.28612,-3.27824l0.25997,-0.05576l0.32396,3.27012z"/><path d="M246.2809,176.31325l-0.28613,-3.27824l0.25997,-0.05576l0.32396,3.27012z"/></g><path d="M253.05687,174.94694l-0.27591,-3.28043l0.26664,-0.05719l0.31471,3.27211z" fill="#96959a" stroke="#000000" stroke-width="0.25" stroke-linecap="butt"/><path d="M269.6853,167.36888l0.38827,-0.35607c0,0 0.48145,-0.67984 0.7976,-0.87815c0.28676,-0.17988 1.01973,-0.26183 1.01973,-0.26183l0.20511,0.95622z" fill="#3b3b3d" stroke="#000000" stroke-width="0.25" stroke-linecap="butt"/><g fill="#000000" stroke="none" stroke-width="0.25" stroke-linecap="butt"><path d="M271.90332,166.87848c0.138,-0.0296 0.29399,0.1521 0.34842,0.40584c0.05443,0.25374 -0.01332,0.48343 -0.15132,0.51304c-0.138,0.0296 -0.29399,-0.1521 -0.34842,-0.40584c-0.05443,-0.25374 0.01332,-0.48343 0.15132,-0.51304z"/><path d="M272.16712,168.64668l-0.25423,-1.18521l0.18595,-0.03989l0.25423,1.18521z"/><path d="M272.37118,168.4079l-0.17996,-0.83898l0.02324,-0.00499l0.17996,0.83898z"/></g><g fill="#000000" stroke="none" stroke-width="0.25" stroke-linecap="butt"><path d="M271.22712,167.11064c0.138,-0.0296 0.29329,0.14883 0.34685,0.39853c0.05356,0.2497 -0.01488,0.47612 -0.15289,0.50572c-0.138,0.0296 -0.29329,-0.14883 -0.34685,-0.39853c-0.05356,-0.2497 0.01488,-0.47612 0.15289,-0.50572z"/><path d="M271.48496,168.85109l-0.25018,-1.16636l0.18595,-0.03989l0.25018,1.16636z"/><path d="M271.68967,168.61527l-0.17709,-0.82562l0.02324,-0.00499l0.17709,0.82562z"/></g><g fill="#000000" stroke="none" stroke-width="0.25" stroke-linecap="butt"><path d="M270.45572,167.30515c0.138,-0.0296 0.29258,0.14555 0.34528,0.39122c0.05269,0.24566 -0.01645,0.46881 -0.15445,0.49841c-0.138,0.0296 -0.29258,-0.14555 -0.34528,-0.39122c-0.05269,-0.24566 0.01645,-0.46881 0.15445,-0.49841z"/><path d="M270.7076,169.01783l-0.24614,-1.1475l0.18595,-0.03989l0.24614,1.1475z"/><path d="M270.91294,168.78498l-0.17423,-0.81227l0.02324,-0.00499l0.17423,0.81227z"/></g><g fill="#000000" stroke="none" stroke-width="0.25" stroke-linecap="butt"><path d="M269.71803,167.52145c0.138,-0.0296 0.29329,0.14883 0.34685,0.39853c0.05356,0.2497 -0.01488,0.47612 -0.15289,0.50572c-0.138,0.0296 -0.29329,-0.14883 -0.34685,-0.39853c-0.05356,-0.2497 0.01488,-0.47612 0.15289,-0.50572z"/><path d="M269.97588,169.2619l-0.25018,-1.16636l0.18595,-0.03989l0.25018,1.16636z"/><path d="M270.18057,169.02609l-0.17709,-0.82562l0.02324,-0.00499l0.17709,0.82562z"/></g><path d="M268.52184,170.47405l0.19652,0.91617" fill="none" stroke="#000000" stroke-width="0.25" stroke-linecap="round"/><g data-paper-data="{&quot;origRot&quot;:0}" stroke="none" stroke-width="0.25" stroke-linecap="butt"><path d="M247.6786,174.35904l1.62679,-1.70271l0.63778,-0.01333c0,0 0.22,1.19845 -0.07761,1.50996c-0.22247,0.23285 -2.39497,0.59851 -2.39497,0.59851z" data-paper-data="{&quot;origRot&quot;:0}" fill="#aaaaaa"/><g data-paper-data="{&quot;origRot&quot;:0}"><path d="M247.77584,174.65466c-0.6017,0.35642 -1.36123,0.26929 -1.69644,-0.19464c-0.33522,-0.46392 -0.11919,-1.12894 0.48251,-1.48536c0.6017,-0.35642 3.16274,-1.35407 3.49796,-0.89016c0.33522,0.46392 -1.68232,2.21374 -2.28402,2.57016z" fill="#000000"/><path d="M247.84518,174.56065c-0.6017,0.35642 -1.36123,0.26929 -1.69644,-0.19464c-0.33522,-0.46392 -0.11919,-1.12894 0.48251,-1.48536c0.6017,-0.35642 3.16274,-1.35407 3.49796,-0.89016c0.33522,0.46392 -1.68232,2.21374 -2.28402,2.57016z" fill="#686868"/><g><path d="M247.50514,174.32107c-0.36722,0.21752 -0.83074,0.16434 -1.03533,-0.11878c-0.20458,-0.28313 -0.07275,-0.68899 0.29447,-0.90651c0.36722,-0.21752 0.83075,-0.16434 1.03533,0.11878c0.20458,0.28313 0.07275,0.68899 -0.29447,0.90651z" fill="#353438"/><path d="M247.89809,173.73032c0.00846,0.30707 -0.26146,0.59576 -0.60287,0.64479c-0.34142,0.04905 -0.62505,-0.16013 -0.63351,-0.46721c-0.00846,-0.30707 0.26145,-0.59575 0.60287,-0.64479c0.34142,-0.04904 0.62505,0.16013 0.63351,0.46721z" data-paper-data="{&quot;origRot&quot;:0}" fill="url(#color-5)"/></g><path d="M249.25199,172.17497c0.44685,-0.2647 0.70155,-0.34314 0.78688,-0.22504c0.08534,0.1181 0.28227,0.31496 -0.16457,0.57966c-0.44685,0.2647 -1.05525,0.39193 -1.14059,0.27383c-0.08534,-0.1181 0.07142,-0.36376 0.51827,-0.62845z" fill="#353438"/></g><path d="M248.67917,174.26824c-0.06219,-0.06995 -0.03766,-0.17833 0.05479,-0.24207c0.09245,-0.06374 0.21781,-0.05871 0.28,0.01125c0.06219,0.06995 0.03766,0.17833 -0.05479,0.24207c-0.09245,0.06374 -0.21781,0.05871 -0.28,-0.01125z" fill="#9e0000"/><path d="M249.53555,173.64594c-0.06219,-0.06995 -0.03766,-0.17833 0.05479,-0.24207c0.09245,-0.06374 0.21781,-0.05871 0.28,0.01125c0.06219,0.06995 0.03766,0.17833 -0.05479,0.24207c-0.09245,0.06374 -0.21781,0.05871 -0.28,-0.01125z" fill="#009e06"/></g><g stroke="none" stroke-width="0.25" stroke-linecap="butt"><path d="M255.09145,171.97692l-0.21621,-1.00798l6.59693,-1.41504l0.21621,1.00798z" fill="url(#color-6)"/><path d="M261.71713,170.50885l0.21621,1.00798c0,0 -1.42637,0.30595 -2.31602,0.49678c-1.20953,0.25944 -4.28092,0.91826 -4.28092,0.91826l-0.21621,-1.00798z" data-paper-data="{&quot;index&quot;:null}" fill="url(#color-7)"/></g><text transform="translate(264.91958,171.60256) rotate(167.89354) scale(0.02373,-0.02321) skewX(0)" font-size="40" xml:space="preserve" fill="#000000" fill-rule="nonzero" stroke="none" stroke-width="0.5" stroke-linecap="butt" stroke-linejoin="miter" stroke-miterlimit="10" stroke-dasharray="" stroke-dashoffset="0" font-family="Sans Serif" font-weight="normal" text-anchor="start" style="mix-blend-mode: normal"><tspan x="0" dy="0">DESERT EAGLE PISTOL</tspan></text><text transform="translate(269.91828,167.22034) rotate(167.89354) scale(0.00115,-0.00115)" font-size="40" xml:space="preserve" fill="#000000" fill-rule="nonzero" stroke="none" stroke-width="0.5" stroke-linecap="butt" stroke-linejoin="miter" stroke-miterlimit="10" stroke-dasharray="" stroke-dashoffset="0" font-family="Sans Serif" font-weight="normal" text-anchor="start" style="mix-blend-mode: normal"><tspan x="0" dy="0">XSNW</tspan></text></g><path d="M249.91004,188.02017c-2.90756,-0.66368 -4.72657,-3.55873 -4.06289,-6.4663c0.66368,-2.90756 3.55873,-4.72657 6.4663,-4.06289c2.90756,0.66368 4.72657,3.55873 4.06289,6.4663c-0.66368,2.90756 -3.55873,4.72657 -6.4663,4.06289z" fill="#ffe3d7" stroke="none" stroke-width="0" stroke-linecap="butt"/></g></g></g></svg>