<svg version="1.1" xmlns="http://www.w3.org/2000/svg" xmlns:xlink="http://www.w3.org/1999/xlink" width="52" height="53" viewBox="0,0,52,53"><defs><radialGradient cx="368.74565" cy="203.0428" r="26.5" gradientUnits="userSpaceOnUse" id="color-1"><stop offset="0" stop-color="#9b9b9b"/><stop offset="1" stop-color="#9b9b9b" stop-opacity="0"/></radialGradient></defs><g transform="translate(-342.74564,-176.54279)"><g data-paper-data="{&quot;isPaintingLayer&quot;:true}" fill-rule="nonzero" stroke="none" stroke-linecap="butt" stroke-linejoin="miter" stroke-miterlimit="10" stroke-dasharray="" stroke-dashoffset="0" style="mix-blend-mode: normal"><path d="M394.74565,204.0428l-25.5,25.5l-26.5,-25.5l25.5,-27.5z" fill="url(#color-1)" stroke-width="0"/><path d="M368.42256,223.68196l-20.49402,-19.95233l19.95233,-20.49402l20.49402,19.95233z" data-paper-data="{&quot;origRot&quot;:0}" fill="#818181" stroke-width="0"/><path d="M368.42257,223.68197l-0.5417,-40.44635l20.49402,19.95233z" data-paper-data="{&quot;origRot&quot;:0}" fill="#767676" stroke-width="0"/><path d="M347.59895,203.49525l20.49402,-19.95232l0.04572,19.83857z" data-paper-data="{&quot;origRot&quot;:0,&quot;index&quot;:null}" fill="#797979" stroke-width="0"/><path d="M368.72986,223.68197l-0.2761,-20.61563l20.22843,0.12161z" data-paper-data="{&quot;origRot&quot;:0}" fill="#717171" stroke-width="0"/><path d="M356.79545,203.55218c0,-6.41248 5.19834,-11.61083 11.61083,-11.61083c6.41248,0 11.61082,5.19834 11.61082,11.61083c0,6.41248 -5.19834,11.61083 -11.61082,11.61083c-6.41248,0 -11.61083,-5.19834 -11.61083,-11.61083z" fill="#616161" stroke-width="0"/><text transform="translate(363.07896,210.44779) scale(0.45774,0.45774)" font-size="40" xml:space="preserve" fill="#9f9f9f" fill-rule="nonzero" stroke="none" stroke-width="1" stroke-linecap="butt" stroke-linejoin="miter" stroke-miterlimit="10" stroke-dasharray="" stroke-dashoffset="0" font-family="Sans Serif" font-weight="normal" text-anchor="start" style="mix-blend-mode: normal"><tspan x="0" dy="0">E</tspan></text></g></g></svg>