<svg version="1.1" xmlns="http://www.w3.org/2000/svg" xmlns:xlink="http://www.w3.org/1999/xlink" width="51.62401" height="61.17942" viewBox="0,0,51.62401,61.17942"><g transform="translate(-220.85476,-147.17394)"><g data-paper-data="{&quot;isPaintingLayer&quot;:true}" fill-rule="nonzero" stroke="none" stroke-linecap="butt" stroke-linejoin="miter" stroke-miterlimit="10" stroke-dasharray="" stroke-dashoffset="0" style="mix-blend-mode: normal"><g stroke-width="0"><g><path d="M262.53035,149.2454c1.70844,-0.48228 3.48436,0.51171 3.96665,2.22014c0.48228,1.70844 -0.51171,3.48436 -2.22015,3.96663c-1.70844,0.48228 -3.48436,-0.51171 -3.96665,-2.22014c-0.48228,-1.70844 0.51171,-3.48436 2.22015,-3.96663z" fill="#660000"/><path d="M262.71996,149.78564c1.38572,-0.39116 2.8262,0.41507 3.21739,1.80079c0.3912,1.38573 -0.41507,2.82621 -1.80079,3.21739c-1.38572,0.39116 -2.8262,-0.41507 -3.21739,-1.80079c-0.3912,-1.38573 0.41507,-2.8262 1.80079,-3.21739z" fill="#cc0000"/><path d="M262.93341,150.54181c0.96812,-0.27329 1.97447,0.28996 2.24776,1.25808c0.27329,0.96812 -0.28996,1.97447 -1.25808,2.24776c-0.96812,0.27329 -1.97447,-0.28996 -2.24776,-1.25808c-0.27329,-0.96812 0.28996,-1.97447 1.25808,-2.24776z" fill="#ff4040"/></g><path d="M263.70482,208.35337l-1.80348,-0.01772l0.52759,-53.7117l1.80348,0.01772z" fill="#404040"/><g fill="#262626"><path d="M267.4264,153.81453l-4.05114,4.46043l-3.74848,-4.53704z"/><path d="M268.68251,155.74362l-5.40153,5.94723l-4.99795,-6.04938z"/></g></g><path d="M252.73733,187.56668c-0.68311,-0.68101 -0.64868,-1.44124 0.15607,-2.36342c0.80478,-0.92217 7.93108,-7.94771 9.36992,-9.36697c0.82965,-0.81838 1.73676,-0.89314 2.49568,-0.22227c0.75138,0.66419 0.4827,1.67763 -0.2147,2.375c-0.70047,0.7004 -9.15421,9.19323 -9.57483,9.621c-0.56393,0.57346 -1.54905,0.63771 -2.23216,-0.04332z" fill="#ffffff" stroke-width="0.5"/><path d="M238.96411,182.18015c0.27425,-0.92478 0.9594,-1.256 2.15333,-0.98653c1.19394,0.26946 10.76301,3.19778 12.69573,3.78862c1.11443,0.34069 1.61153,1.10312 1.38228,2.08979c-0.22697,0.97681 -1.24629,1.22239 -2.19138,0.94044c-0.94923,-0.28317 -12.44033,-3.68147 -13.0166,-3.84811c-0.77263,-0.22341 -1.29761,-1.05949 -1.02332,-1.98422z" fill="#ffffff" stroke-width="0.5"/><path d="M230.09141,180.00024c0,-5.47252 4.43635,-9.90887 9.90887,-9.90887c5.47252,0 9.90887,4.43635 9.90887,9.90887c0,5.47252 -4.43635,9.90887 -9.90887,9.90887c-5.47252,0 -9.90887,-4.43635 -9.90887,-9.90887z" fill="#ffffff" stroke-width="0"/><path d="M262.63368,147.52779h0.16667c0.61218,0.04918 3.54148,0.53435 3.78931,1.75064c0.22889,-0.30117 0.4796,-0.55773 0.69416,-0.63893c1.41874,-0.53694 4.31683,-0.10197 5.03265,1.56728c0.80634,1.88033 -1.5445,3.54154 -3.68359,4.3362c0.1771,0.54363 0.2382,1.2578 0.25079,2.23482c0,0 0,0.63993 -0.45787,1.00405c-0.16001,0.20008 -0.40795,0.3672 -0.79213,0.40473c-0.05293,0.00517 -0.10844,0.00788 -0.16667,0.00788c-0.77686,0 -1.07091,-0.48281 -1.18221,-0.84831c-2.70711,-0.67164 -6.12483,1.63925 -9.07551,0.65478c-1.03172,-0.34422 -2.45293,-0.63719 -2.80543,-1.66611c-0.14097,-0.41147 0.26337,-1.03456 0.76373,-1.52041c-0.28257,-0.0435 -0.55335,-0.11154 -0.75537,-0.18174c-2.15338,-0.7482 -3.33411,-0.83734 -5.73641,-0.62244c-1.98867,0.50046 -3.601,0.87325 -5.30213,2.10832c-1.50141,1.09006 -3.16808,3.6056 -5.44387,3.12124c-0.57115,-0.12156 -0.20822,-1.20191 -0.57828,-1.65362c-0.13011,-0.15882 -0.34801,0.24531 -0.55117,0.27495c-0.98952,0.14437 -2,0 -3,0c-4.87868,0 -6.55684,1.57869 -10.1069,4.30186c-0.06499,0.35834 -0.30914,1.03147 -1.22643,1.03147c-0.31831,0 -0.55556,-0.08105 -0.73239,-0.20188c-0.20276,-0.06897 -0.40996,-0.21014 -0.60094,-0.46478c-0.75,-1 0.25,-1.75 0.25,-1.75c0.10223,-0.07667 0.20324,-0.15265 0.30312,-0.22796c1.68306,-3.02908 5.21409,-5.75158 8.27225,-7.08084c0.25863,-0.11242 2.8374,-0.58996 4.29085,-0.5704l0.00126,-0.07703c6.65558,-2.26411 12.83487,-4.67033 19.93906,-5.28891c2.82998,-0.24641 5.61371,-0.66573 8.36753,-0.00064c0.04781,-0.00422 0.07593,-0.00422 0.07593,-0.00422zM232.12819,155.37966c-0.07323,0.02256 -0.14705,0.044 -0.22109,0.06508c0.07877,-0.00742 0.15827,-0.01435 0.23851,-0.02079c-0.00608,-0.01462 -0.01189,-0.02939 -0.01742,-0.04429z" fill="#ff0000" stroke-width="0.5"/><path d="M222.64467,162.12964c-0.17365,0 -0.28699,-0.06031 -0.36097,-0.13903c-0.07873,-0.07398 -0.13903,-0.18732 -0.13903,-0.36097c0,-0.01782 0.00063,-0.035 0.00186,-0.05157c0.1828,-4.45649 6.01445,-6.58337 9.73342,-7.32761c4.9885,-0.9977 9.4895,-3.54134 14.50997,-4.65651c4.82794,-1.3121 11.08252,-1.85263 16.07604,-0.99535c0.71059,0.3553 2.12102,1.32458 2.82882,1.42896c1.34194,0.19788 3.4643,-0.98302 4.25079,0.50912c1.27945,2.42738 -2.74996,2.42545 -1.8811,4.57395c0.76588,2.8031 -2.17198,0.79113 -3.35313,0.79681h-0.11111c0,0 -0.02149,0 -0.05556,-0.00445c-0.03407,0.00445 -0.05556,0.00445 -0.05556,0.00445c-1.44148,-0.04375 -2.70939,1.47233 -4.29141,0.85525c-1.87143,-0.72997 -1.27124,-2.38962 -2.02873,-3.76889c-0.42571,-0.77515 -2.34202,-0.41969 -3.01319,-0.41969c-3.05232,0 -7.83564,-0.40222 -10.52604,1.26534c-1.19517,0.74078 -2.34398,2.00851 -3.44444,2.88889c-0.86106,0.22517 -1.46163,-1.17691 -2.34629,-1.27436c-1.57092,-0.17305 -2.94897,0.64574 -4.47066,0.88655c-2.81009,0.4447 -5.42986,0.77274 -7.78446,2.34247c-1.10574,1.11507 -1.83372,2.37587 -3.12811,3.34666l-0.14249,0.03466c-0.06776,0.03969 -0.15536,0.06534 -0.26862,0.06534z" fill="#ff8080" stroke-width="0.5"/><path d="M263.26049,150.08305c0.75289,0.13788 3.72492,0.02117 4.08159,0.67649c0.49851,0.91592 -0.64113,2.09742 -1.15258,2.72329c-0.03045,0.18454 -0.06091,0.36907 -0.09136,0.55361c0.12092,0.22556 0.16863,0.53357 -0.04377,0.91588c-0.48564,0.87416 -1.3598,0.38851 -1.3598,0.38851c-1.66784,-1.01828 -2.52576,1.09688 -4.31524,-0.36088c-0.84534,-0.68864 -0.03094,-2.1438 -0.96407,-2.68815c-0.7712,-0.44988 -9.68335,-0.62486 -13.32603,-0.23979c-3.34162,0.35325 -1.81156,1.91551 -5.19286,2.6856c-1.79787,0.40946 -1.74327,-0.50794 -3.09417,-0.43916c-2.21923,0.113 -5.3437,1.01887 -5.3437,1.01887c0.07678,-0.04612 10.08927,-4.85094 19.18159,-6.388c4.57258,-0.773 9.95835,0.84935 11.6204,1.15372z" fill="#ffffff" stroke-width="0.5"/></g></g></svg>