<svg version="1.1" xmlns="http://www.w3.org/2000/svg" xmlns:xlink="http://www.w3.org/1999/xlink" width="102.30807" height="206.178" viewBox="0,0,102.30807,206.178"><g transform="translate(-174.28789,-33.52812)"><g data-paper-data="{&quot;isPaintingLayer&quot;:true}" fill-rule="nonzero" stroke="none" stroke-linecap="butt" stroke-linejoin="miter" stroke-miterlimit="10" stroke-dasharray="" stroke-dashoffset="0" style="mix-blend-mode: normal"><g data-paper-data="{&quot;index&quot;:null}" stroke-width="0.5"><path d="M204.00077,147.46965c0.84353,1.38211 1.70211,2.75373 2.66194,4.05458c0.41416,-0.2178 0.43601,-0.55925 1.30537,-0.09147c0.45516,0.24491 4.31495,5.42675 5.82701,7.12991c0.86381,0.97298 -1.2253,-1.19735 -0.40189,-1.49483c0.8234,-0.29749 1.50886,0.39023 2.14244,0.86598c0.30893,0.23199 2.81692,3.05082 5.53959,5.6573c2.63757,2.52501 5.49527,4.83855 5.61166,5.15315c0.37358,1.00976 -2.16783,0.85049 -2.16835,0.8507c0.49592,0.43375 5.85653,3.69253 4.15214,4.38158c-2.18427,0.88306 -7.35327,-2.94095 -8.36747,-3.94715c-0.30377,0.43485 -0.54576,1.30315 -1.86638,0.7888c-2.60381,-1.01412 -8.22113,-9.01463 -12.67846,-15.46585c-4.30999,-6.23799 -7.83536,-12.63624 -8.17536,-13.73962c-0.25047,-0.81281 0.22519,-1.45595 0.44394,-1.5496c0.55023,-0.23557 0.94739,0.38039 1.08732,0.37019c-0.33207,-0.98891 -2.88287,-8.77108 -1.81961,-9.02248c1.33423,-0.31547 1.11424,3.47297 4.67624,9.55833c3.56201,6.08536 5.81854,6.92523 4.7416,7.74278c-0.76019,0.5771 -2.56417,-1.29141 -2.71174,-1.24231z" fill="#000640"/><path d="M241.25,175.94205c-0.2686,3.07915 -11.79113,-3.08246 -14.63672,-5.01268c0.06871,0.66003 -0.09635,1.05154 -0.40201,1.25203c0.22849,0.22679 0.74723,1.08667 1.60378,1.78972c1.53168,1.25717 3.59822,2.6745 3.13781,3.7805c-0.43648,1.04845 -5.28541,-1.7802 -9.58902,-5.08195c-4.09903,-3.14479 -7.67119,-6.74402 -7.72439,-6.84119c-0.4324,-0.78964 -0.14279,-1.78032 0.64685,-2.2127c0.08028,-0.04395 0.16262,-0.08044 0.24624,-0.10971c-1.38522,-1.49432 -6.34669,-7.49406 -7.78903,-9.38233c-0.37722,-0.49385 -0.30292,-1.06838 0.47586,-1.27945c0.44644,-0.121 1.57174,0.96671 1.69099,0.98641c-1.52686,-2.03411 -7.15919,-11.92472 -4.8588,-11.62076c1.04548,0.13815 2.26408,3.13835 5.05934,7.0595c3.10829,4.36025 6.66556,7.97004 6.56614,8.93853c-0.04024,0.39202 -0.2357,0.72678 -0.51453,0.97962c0.45253,0.55913 0.87801,1.07122 1.27425,1.4805c0.96765,0.9995 1.94303,2.0104 2.92328,3.01718c0.12537,-0.14748 0.27931,-0.27496 0.45921,-0.37347c0.33789,-0.60453 5.31829,3.21037 10.56381,6.38526c5.32075,3.22042 10.90497,5.80892 10.86693,6.245z" fill="#130026"/><path d="M198.98026,143.45818c-0.42288,-1.65567 -0.62536,-4.38508 -0.31839,-4.45462c0.26165,-0.05928 0.69905,1.77312 1.23374,3.21896c0.40139,1.0854 0.78166,2.00286 0.78166,2.00286c0,0 -0.12271,-2.22545 0.538,-2.18041c0.64892,0.04423 2.12416,4.37811 6.18891,9.72635c5.36692,7.06159 8.9685,11.12153 12.08635,14.59029c0.64237,0.71465 0.60415,1.36438 0.50565,1.49409c-0.74096,0.97575 -3.24445,-1.33955 -3.27233,-1.32996c0.36248,0.35919 2.91817,3.04901 3.47824,3.96468c0.56008,0.91567 -0.17382,0.83864 -0.17382,0.83864c0,0 6.73799,5.70822 6.49084,6.06279c-0.28457,0.40828 -6.75531,-4.45068 -11.8907,-9.77009c-3.27507,-3.3924 -6.48805,-8.01237 -6.23237,-8.20042c0.42289,-0.31104 2.3388,1.43489 2.81413,2.04903c0.61029,-0.40188 1.07304,0.19641 1.07304,0.19641c0.05722,0.07415 0.11495,0.14797 0.17318,0.22148c-0.45048,-0.67941 -0.89795,-1.35689 -1.39333,-1.96804c-2.38842,-2.94663 -4.64094,-5.99636 -6.80847,-9.10771c-0.00719,0.21569 2.10523,3.95411 1.77631,4.13313c-0.71589,0.38963 -3.31349,-3.81679 -3.31349,-3.81679c-0.76418,-1.40692 -3.06495,-5.03891 -3.73714,-7.67067z" fill="#ffffff"/></g><g data-paper-data="{&quot;index&quot;:null}" stroke-width="0.5"><path d="M184.17411,77.09529c0.91343,1.39123 2.0389,8.38357 2.15006,9.15389c0.17493,0.15318 0.60643,-0.204 1.10963,0.84515c1.99456,4.15855 4.0265,14.88845 5.91782,22.93765c2.6592,11.31716 4.33374,22.59729 3.97595,22.6962c-0.72068,0.19922 -2.61948,-5.5786 -2.85402,-6.81934c-0.16588,-0.87754 -0.33234,-1.75487 -0.50089,-2.63169c-0.13682,0.09785 -0.41216,1.09833 -1.30037,0.9361c-0.8882,-0.16223 -4.0394,-14.18823 -4.27626,-15.24143c-0.0239,0.00793 -1.56924,-0.16638 -1.78138,-0.85807c-0.00338,-0.01176 -0.00673,-0.02333 -0.01011,-0.03466c-0.43745,-1.47051 -4.11522,-14.40948 -6.02741,-25.20889c-1.38349,-7.81342 -1.36682,-14.63844 -0.80808,-14.56012c1.83119,0.25673 2.22835,7.5976 2.22835,7.5976c0,0 1.6564,0.39516 2.17668,1.18759z" data-paper-data="{&quot;index&quot;:null}" fill="#000640"/><path d="M195.3018,132.17077c-0.93285,0.10777 -5.58248,-18.51228 -4.70344,-18.80516c0.68302,-0.25258 1.47082,1.03184 1.53025,1.02725c-0.40537,-1.32621 -0.85852,-2.64917 -1.32209,-3.94963c0,0 -0.38624,0.49308 -1.30822,-0.73772c-0.47279,-0.63114 -8.26339,-19.51858 -9.17983,-23.94914c-0.2681,-1.29607 -2.08146,-6.80715 -1.14902,-8.29191c0.18701,-0.29778 0.96143,1.49946 1.33464,1.40883c-0.34988,-2.61769 0.5061,-15.40392 1.35316,-15.01616c0.40138,0.18375 0.45257,5.62539 0.96432,10.61489c0.44171,4.30663 1.37765,8.27058 1.38168,8.29533c0.111,0.68063 -0.39412,1.34945 -1.14066,1.53516c0.17355,0.98288 0.35646,1.96477 0.57881,2.94196c0.05631,0.24747 0.11454,0.4942 0.17465,0.74024c1.17898,0.33846 2.79191,5.00896 3.14222,5.80347c2.9476,6.68542 11.22964,29.93592 10.08686,31.76578c-1.07636,1.72347 -2.1001,-2.52485 -2.3534,-2.57019c0.02975,1.32607 2.06372,9.01906 0.61006,9.18699z" fill="#130026"/><path d="M190.46733,97.7844c1.99324,7.25682 4.02282,14.57333 5.23072,22.0171c0.80658,1.41813 2.04805,3.438 2.62941,5.57374c0.96212,3.53449 0.89478,8.52411 0.38673,8.52586c-0.61507,0.00212 -0.63674,-4.62095 -1.24506,-6.93504c-0.19778,-0.75237 -1.65585,-4.0119 -1.65585,-4.0119c0,0 0.11372,1.53209 0.12645,3.18553c0.01378,1.79019 -0.05778,3.77177 0.38241,5.44893c0.94339,3.59441 3.07863,5.04699 3.00799,5.0544c-0.33556,0.03522 -2.7006,-0.31809 -4.10029,-4.99145c-0.76199,-2.54417 -0.99107,-10.64161 -1.0188,-10.82165c-0.73178,-1.34223 -1.51306,-2.65858 -2.29731,-3.97332c0.05279,0.23034 0.02788,0.53775 -0.32196,0.79653c-0.31173,0.23059 -3.41892,-5.98477 -5.78011,-13.09453c-2.60203,-7.83494 -4.44625,-16.65062 -4.02434,-16.71828c0.24975,-0.04005 1.0226,1.04989 1.15854,1.13775c-0.67911,-3.29817 -3.11177,-13.83017 -2.09152,-13.96396c0.43505,-0.05705 2.861,10.79818 5.29981,20.19838c0.99944,3.85227 3.43381,10.49988 3.26523,11.13626c-0.19558,0.73835 -1.02774,-0.01308 -1.02774,-0.01308c0,0 -0.01772,0.19952 0.38493,1.18321c1.14368,2.8053 2.8346,5.54662 4.54171,8.31709c-0.55204,-2.73762 -1.73014,-10.16342 -3.78616,-16.97541c-2.40204,-7.95841 -5.65971,-15.22866 -5.3019,-15.48327c0.66409,-0.47256 4.99931,9.90073 6.23712,14.40712z" data-paper-data="{&quot;index&quot;:null}" fill="#ffffff"/></g><g data-paper-data="{&quot;index&quot;:null}" stroke-width="0.5"><path d="M180.03126,72.19829c-0.45191,0.10294 -2.53291,0.5059 -3.10777,0.32662c-0.43983,-0.01049 -1.78853,-0.72618 -1.5428,-1.50662c0.34653,-1.10054 3.85329,-1.10393 7.54179,-2.85654c3.87101,-1.83933 7.68171,-4.19244 8.62038,-4.23799c0.65631,-0.03185 0.4287,2.19396 0.4287,2.19396c0,0 0.99618,-0.44852 2.03573,-0.93249c1.13478,-0.5283 2.1553,-1.41065 2.61162,-0.6266c0.56734,0.97484 -2.42421,3.93003 -5.99443,5.6583c-3.97361,1.92353 -9.20294,3.9794 -10.14621,2.92232c-0.60792,-0.68128 -0.44699,-0.94097 -0.44699,-0.94097z" data-paper-data="{&quot;index&quot;:null}" fill="#200040"/><path d="M174.77216,63.29987c0.30047,-0.15231 1.08621,0.6655 1.39795,0.74917c-0.41511,-1.06283 -1.02785,-5.8177 -0.55983,-5.90094c2.23437,-0.39742 3.33712,3.82378 3.4286,4.18145c0.54276,-0.86323 1.1785,-0.94776 2.3527,-0.42436c0.10349,0.04614 0.74836,1.64185 1.86588,3.65753c2.00638,3.61894 4.93664,8.72839 4.73184,9.62595c-0.57786,2.53251 -4.96663,-3.54182 -4.96663,-3.54182c0,0 -0.19765,0.91272 -1.02614,0.7351c-0.5125,-0.10987 -1.9506,-1.81448 -2.14389,-2.09188c-0.01714,0.04308 -1.71693,0.78423 -3.02939,-0.55436c-1.46867,-1.49793 -2.99624,-5.95676 -2.05108,-6.43588z" data-paper-data="{&quot;index&quot;:null}" fill="#000426"/><path d="M178.71131,68.45383c-0.37005,0.25363 -0.3562,0.05821 -0.45315,0.06061c0.29482,0.6644 2.34951,3.75356 1.64544,4.16418c-0.40887,0.23845 -3.13573,-4.28018 -4.43003,-8.4759c-0.61905,-2.00673 -1.54295,-6.03476 -1.04246,-6.58694c0.33747,-0.37233 0.50627,0.44525 0.55792,0.40841c-0.47187,-3.80107 -0.21508,-6.81143 0.40925,-11.11459c0.62433,-4.30319 2.42676,-8.4325 2.42676,-8.4325c0,0 -2.58216,8.30284 -2.31215,15.46519c0.25271,6.70321 4.00228,13.96059 3.19842,14.51153z" fill="#ffffff"/><path d="M179.7665,54.03877c0,0 -0.8237,3.57292 -1.3417,3.40874c-0.53239,-0.16875 0.77365,-7.60109 2.88201,-12.56311c2.10835,-4.96201 7.41999,-11.35627 7.41999,-11.35627c0,0 -5.62583,8.66899 -6.82642,12.87338c0.00799,-0.01743 0.65977,-1.83466 1.44331,-1.47273c0.23847,0.11015 -3.13023,8.07528 -3.15688,17.18323c-0.01439,4.91942 1.45965,9.89801 1.12318,10.00743c-0.50555,0.1644 -1.8928,-3.54398 -2.13924,-7.60036c-0.30151,-4.96287 0.59574,-10.48031 0.59574,-10.48031z" data-paper-data="{&quot;index&quot;:null}" fill="#ffffff"/><path d="M196.13035,62.48683c0.98304,-1.52144 4.25492,-7.40456 4.25492,-7.40456c0,0 -2.17087,6.09908 -4.69579,9.62465c-1.77551,2.47915 -5.5967,5.32219 -5.74573,5.13081c-0.2616,-0.33595 0.3526,-1.14194 0.3526,-1.14194c0,0 -0.95475,0.82191 -2.17753,1.55743c-2.30689,1.38763 -5.64271,3.06993 -5.84788,2.57833c-0.31392,-0.75217 1.83877,-1.67003 1.99998,-1.74494c-0.16355,-0.63878 0.48194,-0.91499 0.48194,-0.91499c1.74202,-0.74443 4.47947,-1.77851 6.43124,-4.17887c1.16916,-1.43789 1.81179,-2.75204 2.34863,-2.77997c0.51453,-0.02677 0.5839,0.50675 -0.1111,1.7786c-0.8146,1.49073 -1.86189,2.50043 -1.86189,2.50043c0,0 2.99648,-2.56872 4.5706,-5.00497z" fill="#ffffff"/></g><g data-paper-data="{&quot;index&quot;:null}" stroke-width="0.5"><path d="M218.72103,220.06567c1.31651,0.30821 -0.40249,1.99412 -1.17798,9.00255c-0.77549,7.00843 0.96804,10.37901 -0.37903,10.63415c-1.07348,0.20332 -1.9125,-7.94313 -2.01188,-8.98157c-0.13196,0.04766 -0.2439,0.77197 -0.84236,0.78085c-0.23793,0.00354 -0.93425,-0.39019 -1.03644,-1.23456c-0.13874,-1.14621 0.47588,-8.42549 1.87238,-15.8779c1.44425,-7.70714 3.31713,-17.30167 5.28237,-19.28814c0.99674,-1.00751 1.57133,-0.31299 2.02584,-0.03951c0.51661,-1.33197 3.68062,-6.92934 6.03518,-7.01221c1.83727,-0.06466 -1.73191,5.09448 -2.00823,5.69258c0.00056,-0.00002 2.2569,-1.18031 2.32685,-0.10593c0.0218,0.33473 -1.64624,3.6114 -3.02711,6.99159c-1.42542,3.48925 -2.5683,7.08503 -2.756,7.42271c-0.38496,0.69252 -0.73099,1.59974 -1.60418,1.66331c-0.87319,0.06358 0.15118,-2.76934 -0.2416,-1.52894c-0.68753,2.17126 -2.1029,8.47572 -2.41889,8.88474c-0.60355,0.78123 -0.76254,0.47827 -1.2295,0.44798c-0.34697,1.57895 -0.57265,3.18131 -0.78031,4.78713c0.15478,-0.01524 1.0416,-2.4564 1.9709,-2.23885z" fill="#000640"/><path d="M239.17808,181.13205c0.21231,0.38281 -3.83402,5.0208 -7.38241,10.12869c-3.49821,5.03566 -6.49367,10.54793 -7.04844,10.13336c-0.20443,-0.01673 -0.39692,-0.07047 -0.57148,-0.15413c-0.48537,1.31868 -0.96461,2.63915 -1.44142,3.94604c-0.19525,0.53516 -0.37535,1.17612 -0.56099,1.87107c0.35762,0.1174 0.67245,0.34355 0.86883,0.68522c0.48516,0.84408 -1.294,5.58953 -2.35753,10.8376c-0.95641,4.71955 -0.84779,7.95597 -1.74643,8.50784c-1.97728,1.2143 -0.86032,-10.11264 -0.29402,-12.59219c-0.1009,0.06655 -0.68579,1.51821 -1.14282,1.58948c-0.79725,0.12432 -1.09904,-0.37016 -0.9556,-0.97482c0.54848,-2.31194 2.63702,-9.81201 3.29375,-11.74088c-0.08829,0.00732 -0.17836,0.00753 -0.26958,0.00008c-0.89728,-0.07339 -1.56518,-0.86029 -1.49177,-1.75757c0.00902,-0.11041 1.8061,-4.85229 4.26941,-9.39363c2.58627,-4.768 5.86323,-9.32595 6.68881,-8.54608c0.87087,0.82269 -0.4395,2.95866 -1.32655,4.73056c-0.49606,0.9909 -0.61972,1.9875 -0.73606,2.28767c0.3608,0.05866 0.67097,0.34903 0.87698,0.97984c1.81305,-2.92165 9.82819,-13.24111 11.3273,-10.53815z" fill="#130026"/><path d="M213.79806,228.01266c-0.45767,-2.67741 0.16485,-6.9315 0.28994,-8.52768c0,0 0.65972,-4.89962 1.47223,-4.83525c0.37331,0.02958 -0.03382,4.30419 0.06056,4.49825c0.71282,-3.72431 1.52833,-7.42697 2.50997,-11.09079c0.2036,-0.7599 0.33644,-1.56088 0.47124,-2.36484c-0.02324,0.09085 -0.04592,0.18177 -0.06798,0.2728c0,0 -0.17902,0.73488 -0.90007,0.61631c-0.18407,0.75447 -1.22306,3.12923 -1.73596,3.01734c-0.3101,-0.06766 0.74329,-5.59555 2.35322,-10.02754c2.52441,-6.94951 6.45594,-14.02221 6.88211,-13.76519c0.3701,0.2232 -3.4597,8.18039 -3.4597,8.18039c0,0 0.63894,-0.36919 0.50024,0.69519c-0.1387,1.06437 -1.37767,4.56175 -1.56249,5.0374c0.02937,-0.00259 1.37318,-3.13665 2.44724,-2.54715c0.14278,0.07836 0.44225,0.65623 0.14654,1.57051c-1.43525,4.43772 -3.0716,9.61235 -5.09809,18.24735c-1.5348,6.5399 -1.11752,11.09892 -1.6922,11.40355c-0.58512,0.31017 -1.37921,-1.7724 -1.37921,-1.7724c0,0 0.02625,0.9928 0.10161,2.14758c0.10037,1.53828 0.44699,3.38999 0.18388,3.44239c-0.30869,0.06147 -1.23512,-2.51386 -1.52305,-4.19825z" fill="#ffffff"/></g><g data-paper-data="{&quot;index&quot;:null}" stroke-width="0.5"><path d="M259.54986,193.51275c0.84861,-0.42249 2.47858,0.07046 2.47858,0.07046c0,0 4.04073,-6.14156 5.75196,-5.44097c0.52215,0.21378 -2.90125,6.11815 -8.03204,12.17112c-7.09159,8.3662 -16.78611,17.69137 -17.90471,18.74138c-0.00863,0.00809 -0.01735,0.01638 -0.02619,0.02485c-0.53166,0.49067 -1.95445,-0.13715 -1.97111,-0.15602c-0.73512,0.79053 -10.52228,11.32001 -11.3713,11.01277c-0.84902,-0.30725 -0.58294,-1.31023 -0.65185,-1.46368c-0.58726,0.67256 -1.17298,1.34663 -1.75829,2.02116c-0.82757,0.9537 -5.3782,4.98861 -5.90044,4.45349c-0.25927,-0.26566 6.86916,-9.16684 14.86685,-17.60404c5.68827,-6.00086 12.84829,-14.2467 16.66601,-16.83451c0.96317,-0.65287 1.15601,-0.12695 1.38429,-0.17118c0.48404,-0.60947 4.97835,-6.08309 6.46822,-6.82485z" data-paper-data="{&quot;index&quot;:null}" fill="#000640"/><path d="M222.19529,235.48616c-1.1712,-0.87728 4.46088,-6.49857 5.15452,-7.62914c-0.24167,-0.08843 -3.26595,3.06594 -3.32767,1.03491c-0.06552,-2.15639 18.80048,-18.0703 24.71429,-22.36097c0.70282,-0.50991 4.44872,-3.73222 5.63771,-3.43076c0.17585,-0.18228 0.35044,-0.36608 0.52374,-0.55151c0.68428,-0.73217 1.33689,-1.48827 1.9819,-2.24994c-0.55138,-0.53646 -0.65085,-1.36867 -0.21213,-1.90075c0.01595,-0.01935 2.82113,-2.97228 5.37198,-6.47019c2.95531,-4.05255 5.7405,-8.72767 6.17979,-8.68424c0.92708,0.09169 -4.77391,11.5686 -6.3947,13.65371c0.27675,0.26627 1.85103,-0.89624 1.86259,-0.5448c0.05763,1.75233 -4.28484,5.59982 -5.16927,6.58443c-3.02337,3.36586 -19.26713,15.75815 -19.99347,16.06523c-1.41644,0.59885 -1.50174,-0.02165 -1.50174,-0.02165c-1.05552,0.88994 -2.11336,1.80457 -3.13156,2.74607c0.04903,0.0339 1.37656,-0.67887 1.83938,-0.11663c0.61185,0.69578 -12.78381,14.4392 -13.5354,13.87622z" fill="#130026"/><path d="M243.69212,208.21566c3.3392,-3.26948 12.30935,-10.04707 12.64501,-9.30434c0.18086,0.40019 -6.29541,5.03989 -12.37915,10.70507c-5.20736,4.84911 -9.96548,10.67069 -11.82132,12.75759c2.87023,-1.53348 5.71178,-3.04992 8.11282,-4.89728c0.84333,-0.64698 0.92851,-0.82826 0.92851,-0.82826c0,0 -1.09739,0.23 -0.89443,-0.50636c0.17492,-0.63467 5.62633,-5.1512 8.43012,-7.97566c6.84173,-6.89219 14.40526,-15.04782 14.75235,-14.7794c0.81397,0.62947 -6.59254,8.50249 -8.84049,11.00965c0.16169,-0.00743 1.37835,-0.55971 1.57392,-0.39931c0.33039,0.27098 -5.70325,6.95771 -11.89757,12.41548c-5.62097,4.95263 -11.43591,8.75684 -11.58905,8.40062c-0.17188,-0.39978 -0.03855,-0.67788 0.12308,-0.85027c-1.33973,0.74075 -2.67771,1.48438 -3.98596,2.2753c-0.11464,0.14156 -4.39123,7.02138 -6.33101,8.83541c-3.56315,3.33218 -5.78419,2.44612 -6.05635,2.24668c-0.05729,-0.04198 2.51896,-0.2213 5.14445,-2.85125c1.22505,-1.22714 2.16136,-2.97503 3.07499,-4.5146c0.84384,-1.42195 1.7138,-2.68821 1.7138,-2.68821c0,0 -2.90142,2.0814 -3.45125,2.63173c-1.69112,1.69268 -4.03849,5.67552 -4.56877,5.36389c-0.43802,-0.25742 2.01709,-4.60176 4.62858,-7.1705c1.578,-1.55218 3.6679,-2.67177 5.079,-3.49059c4.79292,-5.82209 10.23157,-11.12036 15.60876,-16.38536z" data-paper-data="{&quot;index&quot;:null}" fill="#ffffff"/></g><g data-paper-data="{&quot;index&quot;:null}" stroke-width="0.5"><path d="M267.70077,190.27652c-1.08892,0.90631 -5.95763,-1.89872 -9.60389,-4.38757c-3.2761,-2.23619 -5.79881,-5.60047 -5.09383,-6.48093c0.56702,-0.70815 1.44615,0.31515 2.49055,1.00512c0.95676,0.63208 1.87584,1.22269 1.87584,1.22269c0,0 0.10333,-2.23503 0.74775,-2.10668c0.92167,0.18357 4.34341,3.07324 7.90061,5.46368c3.38949,2.27773 6.85736,2.79856 7.03769,3.93819c0.12786,0.80815 -1.31168,1.31698 -1.74824,1.26246c-0.59502,0.09249 -2.59377,-0.61315 -3.02555,-0.78165c0,0 0.12085,0.28059 -0.58095,0.8647z" data-paper-data="{&quot;index&quot;:null}" fill="#200040"/><path d="M274.79634,181.3869c0.86411,0.61335 -1.3047,4.79794 -2.97833,6.06274c-1.49561,1.13026 -3.06744,0.14639 -3.07803,0.10125c-0.23209,0.24584 -1.906,1.71958 -2.42911,1.75261c-0.84562,0.05341 -0.90643,-0.87848 -0.90643,-0.87848c0,0 -5.2371,5.36019 -5.43491,2.77014c-0.0701,-0.91796 3.58206,-5.53907 6.10051,-8.82231c1.40273,-1.82871 2.27601,-3.31178 2.38518,-3.34215c1.23857,-0.3444 1.85489,-0.16698 2.26432,0.76688c0.14326,-0.34027 1.85685,-4.35252 4.00811,-3.62973c0.4506,0.15139 -0.85708,4.76379 -1.42449,5.75372c0.32068,-0.03677 1.21849,-0.72967 1.49319,-0.53468z" data-paper-data="{&quot;index&quot;:null}" fill="#000426"/><path d="M270.1398,185.90313c-0.71376,-0.66353 4.06571,-7.28814 5.30482,-13.88068c1.32399,-7.0441 -0.00468,-15.63708 -0.00468,-15.63708c0,0 1.17335,4.3501 1.15584,8.69831c-0.0175,4.3482 -0.20776,7.36347 -1.23538,11.0533c0.04566,0.04407 0.33324,-0.73966 0.61208,-0.3216c0.41353,0.61998 -1.09467,4.46757 -2.00307,6.36099c-1.89929,3.95878 -5.26309,8.02556 -5.63229,7.72938c-0.63576,-0.51002 1.8523,-3.26216 2.24192,-3.87578c-0.09554,-0.01668 -0.11068,0.17865 -0.43925,-0.12681z" fill="#ffffff"/><path d="M271.22332,171.49019c0,0 0.07323,5.58943 -0.95734,10.45349c-0.84233,3.97562 -2.76162,7.43867 -3.23737,7.20147c-0.31664,-0.15787 1.87595,-4.86443 2.58765,-9.73212c1.31768,-9.01219 -0.83876,-17.38721 -0.58664,-17.46096c0.82837,-0.24234 1.20486,1.65118 1.21019,1.66959c-0.56701,-4.33553 -4.85201,-13.7398 -4.85201,-13.7398c0,0 4.30991,7.10808 5.66295,12.32689c1.35305,5.21882 1.54803,12.76253 0.99656,12.85086c-0.53655,0.08595 -0.82399,-3.56941 -0.82399,-3.56941z" data-paper-data="{&quot;index&quot;:null}" fill="#ffffff"/><path d="M253.79198,177.43101c1.19737,2.64187 3.78199,5.62464 3.78199,5.62464c0,0 -0.88683,-1.1532 -1.47253,-2.74782c-0.49971,-1.3605 -0.35237,-1.87792 0.15258,-1.77553c0.52684,0.10684 0.96851,1.50144 1.91269,3.09612c1.57619,2.6621 4.13107,4.08882 5.74416,5.08216c0,0 0.59767,0.36843 0.34164,0.97609c0.1484,0.09787 2.14208,1.32335 1.72059,2.02096c-0.27547,0.45595 -3.32651,-1.7002 -5.40338,-3.41305c-1.10085,-0.90791 -1.92387,-1.86171 -1.92387,-1.86171c0,0 0.48854,0.8878 0.18022,1.18148c-0.17565,0.16729 -3.53546,-3.2085 -4.92569,-5.92252c-1.97703,-3.85958 -3.2241,-10.21221 -3.2241,-10.21221c0,0 2.36791,6.30152 3.11568,7.95137z" fill="#ffffff"/></g><path d="M230.09116,180.00003c0,-5.47252 4.43635,-9.90887 9.90887,-9.90887c5.47252,0 9.90887,4.43635 9.90887,9.90887c0,5.47252 -4.43635,9.90887 -9.90887,9.90887c-5.47252,0 -9.90887,-4.43635 -9.90887,-9.90887z" fill="#ffffff" stroke-width="0"/></g></g></svg>